<svg width="241" height="200" viewBox="0 0 241 200" fill="none" xmlns="http://www.w3.org/2000/svg">
<path d="M30.8008 83.8722L115.836 30.2031L200.871 83.8722V162.177H30.8008V83.8722V83.8722Z" fill="#E6E7E8"/>
<path fill-rule="evenodd" clip-rule="evenodd" d="M30.4063 162.175C30.4063 162.392 30.5827 162.568 30.8002 162.568H200.871C201.086 162.586 201.275 162.429 201.296 162.214V83.9096C201.296 83.7739 201.224 83.6484 201.107 83.5792L116.04 29.9022C115.912 29.8243 115.751 29.8243 115.623 29.9022L30.5875 83.5398C30.4725 83.6099 30.4035 83.7357 30.4063 83.8703V162.175ZM200.516 161.781H31.1704V84.0906L115.835 30.689L200.516 84.0906V161.781Z" fill="#231F20"/>
<path d="M136.551 62.7912C139.378 58.1253 140.095 52.4524 139.835 47.0076C139.647 41.0506 138.075 35.219 135.243 29.9729C134.093 27.72 132.405 25.785 130.328 24.3392C127.776 22.7656 126.036 23.8278 123.539 23.4029C121.428 23.041 119.222 21.5381 116.883 21.1526C111.486 20.2309 105.941 21.3895 101.366 24.3943C93.3636 29.7998 89.6695 40.1307 81.3991 45.1507C73.2941 50.0447 62.9207 48.5733 53.8312 51.28C49.9945 52.4286 46.4197 54.3157 43.3081 56.835C41.1585 58.4789 39.3994 60.5774 38.1568 62.98C36.0223 67.4335 36.5815 72.7366 38.1568 77.434C39.7321 82.265 42.3944 86.8758 46.5217 89.8736C49.9795 92.3678 54.225 93.5166 58.4232 94.2719C64.1337 95.3027 70.049 95.6882 75.7516 94.4529C79.9604 93.6044 83.8831 91.698 87.149 88.9137C88.551 87.6626 89.3229 85.9552 90.6304 84.7121C92.4342 83.0047 95.2461 81.9582 97.357 80.6521C100.657 78.5985 103.965 76.4111 107.73 75.4354C117.293 72.9491 130.785 72.2724 136.551 62.7912Z" fill="white"/>
<path fill-rule="evenodd" clip-rule="evenodd" d="M58.3371 94.6636C61.5681 95.2743 64.8473 95.5956 68.1355 95.6236C70.7175 95.6531 73.2952 95.4025 75.823 94.8761C80.1178 94.0117 84.1167 92.055 87.4331 89.1952C88.1516 88.5138 88.7911 87.7537 89.3392 86.9292C89.8027 86.2339 90.3301 85.5832 90.9145 84.9857C92.2059 83.8974 93.6395 82.9895 95.1757 82.2869C96.0028 81.862 96.7904 81.4293 97.5781 80.9651L98.3657 80.4536L98.4303 80.4135C101.395 78.5691 104.447 76.6706 107.818 75.8035C109.624 75.3317 111.553 74.9383 113.595 74.5215L113.906 74.4581L113.907 74.4579C122.461 72.7112 132.133 70.7361 136.858 63.0098C139.41 58.8318 140.505 53.4814 140.198 47.0295C140.017 41.013 138.428 35.1225 135.559 29.8295C134.386 27.5218 132.653 25.5444 130.518 24.0779C129.172 23.2476 127.578 22.9162 126.012 23.1415C125.21 23.2165 124.401 23.1981 123.602 23.0865C122.546 22.8489 121.519 22.498 120.538 22.04C119.386 21.4792 118.169 21.0617 116.915 20.7968C111.432 19.8746 105.802 21.064 101.162 24.1251C97.2551 26.7845 94.325 30.6321 91.4974 34.3538L91.4694 34.3906C88.4929 38.3054 85.4192 42.348 81.2106 44.8893C76.3744 47.8084 70.8214 48.4221 64.9455 49.0673C61.16 49.3758 57.4093 50.0183 53.7372 50.9872C49.857 52.148 46.2419 54.0565 43.0959 56.6051C40.8962 58.283 39.1032 60.4345 37.8501 62.8996C35.432 67.8881 36.5032 73.687 37.795 77.6211C39.6066 83.1288 42.5288 87.5114 46.2859 90.2102C50.043 92.909 54.6981 94.0106 58.3371 94.6636ZM101.571 24.7624C105.041 22.4533 109.122 21.2315 113.292 21.2532C114.494 21.2624 115.692 21.3729 116.876 21.5836C118.062 21.8312 119.215 22.2194 120.31 22.7403C121.336 23.2247 122.414 23.5916 123.523 23.8339C124.377 23.954 125.241 23.9777 126.099 23.9048C127.512 23.6693 128.963 23.9485 130.187 24.6916C132.216 26.1023 133.862 27.9951 134.976 30.1993C137.791 35.3928 139.348 41.1733 139.521 47.0767C139.82 53.387 138.733 58.6272 136.291 62.6557C131.754 70.1148 122.224 72.0582 113.804 73.7657C111.622 74.2063 109.606 74.6233 107.684 75.119C104.197 76.0034 101.093 77.9386 98.0911 79.8098L98.0428 79.8399L97.2079 80.3592C96.4753 80.8077 95.6877 81.2169 94.8449 81.6496C93.2473 82.3817 91.7578 83.3295 90.4183 84.4664C89.7947 85.0931 89.2329 85.7781 88.7406 86.5122C88.2213 87.293 87.6163 88.0135 86.9368 88.6602C83.7139 91.4347 79.829 93.3317 75.6576 94.1679C70.7348 95.238 65.1267 95.1751 58.4946 93.987C54.9344 93.3418 50.3502 92.2481 46.7349 89.6437C43.1196 87.0393 40.2761 82.8062 38.5118 77.385C37.2436 73.5689 36.2276 67.9904 38.5118 63.2222C39.7274 60.8646 41.4551 58.808 43.5685 57.2031C46.6416 54.7076 50.1736 52.8365 53.9656 51.6953C57.5935 50.7381 61.2997 50.1061 65.04 49.8069L65.0941 49.8009C70.7564 49.1734 76.6264 48.5227 81.5808 45.5266C85.9112 42.9201 89.034 38.8096 92.0524 34.8364L92.0723 34.8101L92.1132 34.7564C94.8966 31.0987 97.7699 27.3228 101.571 24.7624Z" fill="#231F20"/>
<path d="M168.686 55.0808L164.543 70.6599L174.523 72.4381L180.209 51.6266C180.209 51.6266 171.34 44.8442 169.97 44.797C168.599 44.7498 168.686 55.0808 168.686 55.0808Z" fill="white"/>
<path fill-rule="evenodd" clip-rule="evenodd" d="M174.454 72.8345H174.525C174.691 72.8323 174.837 72.7246 174.888 72.567L180.582 51.7555C180.622 51.6007 180.567 51.4369 180.44 51.3385C178.936 50.1976 171.39 44.4774 169.98 44.4302C169.785 44.4225 169.595 44.5 169.461 44.6426C168.295 45.7678 168.295 53.4157 168.295 55.0838L164.183 70.592C164.153 70.6978 164.169 70.8116 164.227 70.9048C164.286 70.9981 164.382 71.0618 164.49 71.0799L174.454 72.8345ZM174.257 71.9926L165.073 70.3717L169.106 55.2097C169.111 55.1757 169.111 55.1413 169.106 55.1074C169.075 50.7012 169.421 45.6104 169.98 45.1934C170.737 45.217 175.51 48.5374 179.771 51.7791L174.257 71.9926Z" fill="#231F20"/>
<path d="M157.902 44.893C157.902 44.893 159.312 48.0403 161.344 48.5517C163.377 49.0632 167.795 46.8837 168.307 47.1669C168.819 47.4502 180.477 56.1682 181.611 56.4278C182.745 56.6875 184.832 53.9415 185.722 50.6762C185.722 50.6762 174.38 42.9496 173.64 42.1313C172.899 41.313 172.017 36.419 170.914 34.625L157.902 44.893Z" fill="white"/>
<path fill-rule="evenodd" clip-rule="evenodd" d="M181.486 56.8447C181.567 56.8523 181.649 56.8523 181.73 56.8447C183.266 56.8447 185.275 53.7131 186.086 50.8491C186.134 50.6882 186.07 50.5151 185.929 50.4242C181.384 47.3241 174.437 42.5088 173.917 41.9344C173.431 40.962 173.066 39.9342 172.83 38.8737C172.466 37.3598 171.938 35.8902 171.255 34.4911C171.193 34.3979 171.096 34.3328 170.987 34.3101C170.875 34.2918 170.761 34.3203 170.672 34.3888L157.683 44.6175C157.541 44.7265 157.495 44.9204 157.573 45.0817C157.574 45.0839 157.575 45.0869 157.577 45.0907C157.684 45.3185 159.121 48.3959 161.275 48.9686C162.638 49.3285 164.873 48.5913 166.517 48.0491L166.544 48.0401C166.732 47.9746 166.934 47.8952 167.129 47.8184C167.59 47.6369 168.014 47.4702 168.12 47.5366C168.269 47.631 169.482 48.5044 170.876 49.5272C177.06 54.0357 180.777 56.6716 181.486 56.8447ZM168.498 46.8206C168.398 46.7697 168.287 46.7453 168.175 46.7497C167.518 46.8282 166.875 46.9922 166.261 47.2376L166.243 47.2433C164.786 47.7233 162.586 48.4481 161.44 48.1503C159.967 47.7805 158.778 45.7426 158.392 45.003L170.766 35.2228C171.285 36.457 171.715 37.7271 172.05 39.0232C172.578 40.8171 172.916 41.9501 173.318 42.3907C174.027 43.1854 183.321 49.543 185.235 50.8412C184.282 54.0751 182.408 56.2467 181.667 56.05C181.033 55.8815 176.222 52.3943 172.874 49.9682C172.313 49.5616 171.793 49.1848 171.341 48.8584C171.126 48.7023 170.925 48.5562 170.738 48.4196C169.307 47.3794 168.644 46.8971 168.498 46.8206Z" fill="#231F20"/>
<path d="M170.304 37.5585C170.21 38.3903 170.367 39.2311 170.753 39.9741C171.391 41.115 174.218 42.6335 174.218 42.6335L176.187 38.6994L172.328 35.9141L170.304 37.5585Z" fill="#231F20"/>
<path fill-rule="evenodd" clip-rule="evenodd" d="M174.036 42.9808C174.091 43.0121 174.153 43.0284 174.217 43.028C174.258 43.0255 174.298 43.0148 174.335 42.9965C174.437 42.9657 174.522 42.8947 174.571 42.7998L176.54 38.8657C176.622 38.6941 176.569 38.4888 176.414 38.3779L172.563 35.5926C172.42 35.4796 172.217 35.4796 172.074 35.5926L170.05 37.2606C169.976 37.3219 169.928 37.4092 169.916 37.5045C169.812 38.4206 169.985 39.3468 170.412 40.164C171.082 41.3678 173.728 42.8234 174.036 42.9808ZM171.098 39.7863C170.776 39.1659 170.632 38.469 170.68 37.772L172.342 36.3951L175.682 38.8107L174.051 42.0996C173.138 41.5724 171.507 40.5731 171.098 39.7863Z" fill="#231F20"/>
<path d="M182.65 48.5894C182.65 48.5894 183.682 45.3398 181.863 45.1116C181.829 44.53 181.494 44.008 180.979 43.7347C180.464 43.4613 179.844 43.4763 179.342 43.774C179.342 43.774 178.759 41.3585 176.853 41.8463C174.947 42.3341 173.435 46.8898 173.703 48.0386C173.971 49.1874 175.451 48.4871 176.2 47.4091C176.2 47.4091 175.231 49.2031 175.877 49.6752C176.822 50.3676 177.814 49.1401 178.618 48.2432C178.618 48.2432 177.428 50.344 179.177 50.5328C180.524 50.6823 181.776 47.9678 181.776 47.9678L182.65 48.5894Z" fill="white"/>
<path fill-rule="evenodd" clip-rule="evenodd" d="M179.102 50.9328H179.251C180.457 50.9328 181.465 49.3435 181.843 48.5409L182.378 48.9107C182.483 48.981 182.614 48.9985 182.733 48.9579C182.851 48.9203 182.943 48.8257 182.977 48.7061C183.072 48.4779 183.678 46.4873 182.977 45.3936C182.787 45.0923 182.493 44.8711 182.15 44.772C182.008 44.1861 181.648 43.6766 181.142 43.3479C180.652 43.1003 180.082 43.0661 179.566 43.2535C179.338 42.6145 178.913 42.0639 178.353 41.6798C177.866 41.3867 177.277 41.3124 176.731 41.4752C174.557 42.0339 172.99 46.802 173.281 48.1317C173.343 48.5689 173.675 48.9192 174.108 49.0051C174.506 49.0603 174.91 48.9739 175.25 48.7612C175.122 49.2068 175.26 49.6864 175.605 49.9965C176.384 50.5709 177.141 50.209 177.794 49.6346C177.799 50.3529 178.383 50.9328 179.102 50.9328ZM178.818 47.9272C178.751 47.8745 178.667 47.8467 178.582 47.8485C178.472 47.8487 178.366 47.8942 178.29 47.9744L178.125 48.1632C177.274 49.1074 176.621 49.7526 176.069 49.3513C175.888 49.2176 176.109 48.3678 176.51 47.581C176.604 47.3972 176.542 47.1727 176.369 47.0617C176.191 46.9535 175.96 47.0017 175.841 47.1718C175.504 47.7434 174.923 48.1291 174.266 48.2183C174.21 48.2104 174.108 48.1868 174.053 47.9429C173.84 46.9436 175.25 42.6476 176.928 42.2227C177.267 42.1164 177.635 42.1563 177.944 42.3329C178.437 42.7155 178.787 43.2533 178.936 43.8593C178.967 43.9722 179.044 44.0668 179.149 44.119C179.254 44.1664 179.375 44.1664 179.48 44.119C179.876 43.8897 180.355 43.8549 180.779 44.0245C181.145 44.2956 181.389 44.7 181.457 45.1497C181.483 45.3247 181.62 45.4622 181.796 45.488C182.016 45.5038 182.216 45.6199 182.339 45.8028C182.597 46.4863 182.622 47.2359 182.41 47.935L181.969 47.6282C181.873 47.5593 181.751 47.5389 181.638 47.5731C181.527 47.6046 181.436 47.682 181.386 47.7855C181.016 48.5724 179.976 50.2326 179.188 50.146C178.755 50.0988 178.645 49.9257 178.645 49.8706C178.456 49.5008 178.755 48.7455 178.928 48.4386C179.023 48.2643 178.976 48.047 178.818 47.9272Z" fill="#231F20"/>
<path d="M174.232 38.8417C174.232 38.8417 173.153 36.9691 172.018 38.6136C170.884 40.258 169.522 43.3345 171.412 43.665C173.302 43.9954 174.72 40.4705 174.232 38.8417Z" fill="white"/>
<path fill-rule="evenodd" clip-rule="evenodd" d="M171.351 44.0696C171.453 44.0774 171.556 44.0774 171.658 44.0696C172.335 44.0378 172.966 43.7169 173.391 43.1883C174.429 41.9561 174.875 40.3317 174.612 38.7428L174.572 38.6562C174.571 38.6545 174.57 38.6526 174.569 38.6505C174.49 38.5225 173.92 37.5934 173.068 37.5547C172.493 37.5765 171.972 37.8995 171.697 38.4045C170.886 39.569 169.665 41.9058 170.216 43.2198C170.415 43.6851 170.848 44.009 171.351 44.0696ZM172.343 38.8215C172.501 38.5933 172.753 38.3179 173.013 38.3179H173.028C173.383 38.3336 173.737 38.7821 173.863 38.9867C174.033 40.3009 173.648 41.6264 172.8 42.6454C172.494 43.0648 171.995 43.2993 171.477 43.267C171.242 43.2494 171.036 43.1042 170.941 42.8893C170.61 42.0946 171.39 40.1984 172.343 38.8215Z" fill="#231F20"/>
<path d="M168.681 56.1339C168.681 56.1339 167.436 50.1934 167.318 49.1312C167.121 47.3294 167.547 44.5126 169.13 44.072C170.713 43.6313 174.336 43.2143 173.738 44.8037C173.194 46.2514 170.02 46.5268 170.02 46.5268C170.02 46.5268 172.21 48.7299 171.879 50.9252" fill="white"/>
<path d="M168.68 56.5316C168.495 56.5324 168.335 56.4048 168.294 56.2247C168.247 55.9808 167.05 50.2449 166.931 49.1433C166.727 47.3022 167.121 44.1942 169.027 43.6356C170.019 43.3602 173.052 42.7937 173.942 43.7615C174.216 44.067 174.281 44.5069 174.107 44.8787C173.658 46.0904 171.846 46.5704 170.799 46.7592C171.461 47.5933 172.524 49.2377 172.264 50.9215C172.243 51.0621 172.148 51.1807 172.016 51.2327C171.883 51.2847 171.733 51.2623 171.622 51.1737C171.511 51.0852 171.455 50.9441 171.476 50.8035C171.776 48.8286 169.751 46.7592 169.736 46.7435C169.628 46.6333 169.592 46.4722 169.641 46.3265C169.696 46.1841 169.828 46.086 169.98 46.0747C170.767 46.0039 172.989 45.6026 173.359 44.6034C173.445 44.3909 173.359 44.328 173.359 44.2965C172.941 43.8323 170.76 43.9739 169.231 44.3909C167.948 44.745 167.522 47.31 167.711 49.0253C167.829 50.056 169.058 55.9415 169.066 55.9965C169.089 56.099 169.07 56.2065 169.012 56.2941C168.954 56.3817 168.862 56.4419 168.759 56.4608L168.68 56.5316Z" fill="#231F20"/>
<path d="M191.938 33.6119C191.938 33.6119 178.815 32.3137 173.459 35.4138C172.113 36.2166 170.824 37.1104 169.6 38.089C166.693 40.3629 163.96 42.9436 161.833 44.3835C157.612 47.2161 153.532 47.7905 150.751 43.282C148.388 39.4344 149.767 37.609 152.964 34.1863C154.54 32.4947 157.879 29.7014 160.754 26.6092C162.454 24.8902 163.887 22.9278 165.008 20.7867C167.434 15.6881 166.748 7.875 166.748 7.875L191.938 33.6119Z" fill="white"/>
<path fill-rule="evenodd" clip-rule="evenodd" d="M154.675 46.8394C155.089 46.9322 155.512 46.9771 155.935 46.9731C157.739 46.9731 159.787 46.2178 162.071 44.7071C163.574 43.634 165.02 42.4837 166.403 41.2608C167.498 40.3245 168.672 39.3488 169.861 38.4125C171.07 37.445 172.344 36.5616 173.673 35.7688C178.579 32.9163 190.423 33.8848 191.788 33.9964C191.865 34.0027 191.908 34.0063 191.916 34.0063C192.081 34.0191 192.238 33.9283 192.309 33.7781C192.38 33.6308 192.351 33.4555 192.239 33.3375L167.034 7.57696C166.919 7.45313 166.737 7.41807 166.585 7.49041C166.434 7.56163 166.343 7.71809 166.356 7.88383C166.364 7.96251 167.018 15.6734 164.655 20.6303C163.556 22.7357 162.146 24.664 160.472 26.3505C158.81 28.0973 157.038 29.7811 155.463 31.2446C154.329 32.291 153.352 33.2037 152.675 33.9276C149.445 37.3896 147.878 39.3803 150.422 43.5032C151.31 45.1607 152.853 46.3707 154.675 46.8394ZM165.372 20.9687C167.293 16.8851 167.301 11.2357 167.207 8.87522L190.947 33.1644C187.686 32.9205 177.856 32.4641 173.295 35.1157C171.922 35.9294 170.606 36.8363 169.357 37.8303C168.325 38.6371 167.323 39.479 166.345 40.3006C166.188 40.4324 166.031 40.5637 165.876 40.6943C164.517 41.8975 163.094 43.0269 161.614 44.0776C158.992 45.8322 156.715 46.5168 154.841 46.1076C153.23 45.6732 151.872 44.5904 151.091 43.1177C148.839 39.4432 150.099 37.8067 153.25 34.4627C153.889 33.7776 154.838 32.8967 155.926 31.8863L155.998 31.8189L156.027 31.7922C157.603 30.3275 159.38 28.6765 161.047 26.8856C162.775 25.1386 164.232 23.1444 165.372 20.9687Z" fill="#231F20"/>
<path d="M170.302 37.5619C167.396 39.8358 163.883 42.8493 161.835 44.3758C157.156 47.8692 154.195 48.239 151.138 43.9194C147.988 39.4817 149.768 37.6248 152.966 34.1943C154.541 32.5026 157.881 29.7094 160.756 26.6172C160.756 26.6172 160.937 29.8353 164.143 33.7615C165.716 35.6763 167.883 37.0134 170.302 37.5619V37.5619Z" fill="#231F20"/>
<path fill-rule="evenodd" clip-rule="evenodd" d="M155.179 47.409C155.419 47.4475 155.661 47.4659 155.904 47.4641C157.589 47.4641 159.558 46.5829 162.071 44.6866C163.105 43.9172 164.502 42.7724 165.999 41.5446C166.11 41.4541 166.221 41.3631 166.332 41.2718C166.501 41.1338 166.671 40.9951 166.841 40.8563C168.096 39.8318 169.367 38.7943 170.546 37.8727C170.665 37.7725 170.719 37.6156 170.688 37.4636C170.646 37.315 170.524 37.2024 170.373 37.1725C168.049 36.6327 165.968 35.3443 164.45 33.5059C161.378 29.737 161.149 26.5897 161.149 26.5897C161.14 26.4328 161.038 26.2967 160.889 26.2435C160.743 26.1876 160.576 26.2283 160.472 26.3458C158.81 28.0926 157.038 29.7764 155.463 31.2398C155.37 31.325 155.279 31.4091 155.189 31.4921C154.171 32.4303 153.293 33.2394 152.635 33.9622L152.624 33.9738C149.433 37.3974 147.503 39.4674 150.815 44.1437C152.217 46.1265 153.604 47.1651 155.179 47.409ZM155.998 31.8142C157.408 30.5081 158.983 29.0446 160.488 27.471C161.073 29.8809 162.22 32.1186 163.835 34.0016C165.292 35.7702 167.237 37.0725 169.428 37.7469C168.262 38.6753 167.033 39.6824 165.836 40.666C165.535 40.9121 165.238 41.1568 164.945 41.3973C163.667 42.4482 162.489 43.4168 161.598 44.0572C158.865 46.095 156.928 46.8819 155.297 46.6301C153.95 46.4176 152.729 45.4813 151.461 43.6874C148.531 39.5362 150.09 37.8581 153.224 34.4851L153.249 34.4579C153.889 33.7728 154.837 32.8919 155.926 31.8816L155.998 31.8142Z" fill="#231F20"/>
<path d="M195.578 32.4987C192.64 35.1345 186.126 32.9393 179.786 27.581C178.161 26.2104 176.634 24.7275 175.217 23.1433C173.825 21.5886 172.54 19.9403 171.373 18.21C166.647 11.2702 165.175 4.55075 168.136 1.89916C171.791 -1.38189 180.912 2.804 188.497 11.2545C196.082 19.7049 199.249 29.2097 195.578 32.4987Z" fill="#7C5DFA"/>
<path fill-rule="evenodd" clip-rule="evenodd" d="M167.584 1.32698C168.656 0.417059 170.031 -0.0550747 171.436 0.00512267C176.288 0.00512267 183.188 4.21462 189.064 10.698C192.528 14.4124 195.223 18.7735 196.995 23.5311C198.468 27.8586 198.13 31.2419 196.105 33.0516C195.031 33.9805 193.642 34.4645 192.222 34.405C188.701 34.405 183.975 32.1232 179.25 28.1891C175.982 25.4032 173.105 22.1903 170.696 18.6371C165.631 11.1623 164.379 4.19888 167.584 1.32698ZM188.473 11.2645C182.644 4.77326 175.902 0.791944 171.436 0.791944C170.236 0.739578 169.06 1.13504 168.136 1.90136C165.174 4.55295 166.647 11.2724 171.373 18.2122C172.534 19.9447 173.813 21.5956 175.201 23.1534C176.618 24.7376 178.145 26.2205 179.769 27.5911C184.314 31.415 188.906 33.626 192.238 33.626C193.447 33.6829 194.633 33.2842 195.562 32.5087C199.248 29.2198 196.066 19.715 188.473 11.2645Z" fill="#231F20"/>
<path d="M185.021 21.0373L179.783 27.5837C178.158 26.2131 176.632 24.7302 175.215 23.146C173.822 21.5912 172.538 19.9429 171.371 18.2126L178.948 13.5625L185.021 21.0373Z" fill="white"/>
<ellipse cx="181.971" cy="17.3296" rx="2.24386" ry="4.81741" transform="rotate(-39.4 181.971 17.3296)" fill="#231F20"/>
<path fill-rule="evenodd" clip-rule="evenodd" d="M179.92 18.9833C181.314 20.6828 182.984 21.6821 184.221 21.6821C184.593 21.6879 184.956 21.5688 185.253 21.3438C186.395 20.3996 185.835 17.8975 183.977 15.6393C183.227 14.6671 182.279 13.8652 181.196 13.2867C180.141 12.8146 179.243 12.8068 178.652 13.2867C178.061 13.7667 177.896 14.6558 178.187 15.7888C178.536 16.9626 179.126 18.0507 179.92 18.9833ZM179.148 13.8926C179.314 13.7695 179.517 13.7082 179.723 13.7195C180.108 13.7436 180.484 13.8481 180.826 14.0263C181.818 14.5427 182.69 15.261 183.386 16.135C185.04 18.1493 185.442 20.1714 184.764 20.73C184.087 21.2887 182.181 20.5019 180.527 18.4876C179.803 17.6443 179.266 16.6575 178.951 15.5921C178.747 14.7895 178.817 14.168 179.148 13.8926Z" fill="#231F20"/>
<path d="M178.581 48.6347C178.512 48.6352 178.444 48.6161 178.385 48.5796C178.294 48.5286 178.227 48.4429 178.2 48.342C178.174 48.2412 178.189 48.1339 178.243 48.0446C178.732 47.244 179.337 46.5202 180.039 45.8965C180.143 45.7867 180.301 45.7461 180.445 45.7921C180.589 45.8382 180.694 45.9628 180.715 46.1125C180.736 46.2623 180.669 46.4108 180.543 46.4945C179.931 47.07 179.401 47.7265 178.967 48.4458C178.886 48.578 178.736 48.6515 178.581 48.6347V48.6347Z" fill="#231F20"/>
<path d="M176.163 47.805H176.1C175.998 47.7841 175.908 47.7235 175.85 47.6364C175.793 47.5493 175.772 47.443 175.793 47.3407C176.078 46.2178 176.743 45.228 177.676 44.5396C177.85 44.4093 178.096 44.4445 178.227 44.6183C178.357 44.7921 178.322 45.0387 178.148 45.1691C177.377 45.7437 176.822 46.5615 176.573 47.4902C176.531 47.6806 176.358 47.8133 176.163 47.805Z" fill="#231F20"/>
<path d="M181.74 48.3671C181.661 48.3677 181.583 48.3428 181.519 48.2963C181.433 48.236 181.375 48.144 181.357 48.0406C181.339 47.9371 181.364 47.8309 181.425 47.7455L181.96 46.9587C182.091 46.7872 182.332 46.7459 182.512 46.8642C182.687 46.9922 182.729 47.2361 182.606 47.415L182.063 48.2018C181.99 48.3083 181.869 48.3706 181.74 48.3671V48.3671Z" fill="#231F20"/>
<path d="M156.88 46.6704C156.795 46.671 156.712 46.6433 156.644 46.5917C153.162 43.948 151.004 40.7378 150.579 37.559V37.4725C150.528 37.301 150.599 37.1167 150.752 37.024C150.84 36.9663 150.948 36.9471 151.051 36.9709C151.153 36.9947 151.242 37.0593 151.296 37.1499C151.342 37.2458 151.369 37.3502 151.374 37.4567C151.776 40.4309 153.816 43.4523 157.14 45.9623C157.277 46.0647 157.332 46.2437 157.276 46.4052C157.221 46.5667 157.067 46.6739 156.896 46.6704H156.88Z" fill="white"/>
<path d="M154.935 34.1129C154.825 34.1114 154.722 34.0626 154.651 33.9791C154.577 33.9066 154.535 33.8073 154.535 33.7037C154.535 33.6001 154.577 33.5008 154.651 33.4283L158.889 29.4942C158.96 29.4182 159.06 29.375 159.164 29.375C159.269 29.375 159.368 29.4182 159.44 29.4942C159.514 29.5667 159.556 29.666 159.556 29.7696C159.556 29.8732 159.514 29.9725 159.44 30.045L155.202 33.9791C155.135 34.0586 155.038 34.107 154.935 34.1129Z" fill="white"/>
<path d="M155.518 35.0592C155.408 35.0564 155.304 35.0113 155.227 34.9333C155.076 34.7777 155.076 34.5303 155.227 34.3747L159.464 30.4406C159.617 30.2906 159.862 30.2906 160.016 30.4406C160.09 30.5145 160.132 30.615 160.132 30.7199C160.132 30.8248 160.09 30.9254 160.016 30.9992L155.786 34.9333C155.715 35.0066 155.62 35.0513 155.518 35.0592V35.0592Z" fill="white"/>
<path d="M156.188 36.1441C156.08 36.1467 155.976 36.1005 155.905 36.0182C155.831 35.9456 155.789 35.8464 155.789 35.7428C155.789 35.6392 155.831 35.5399 155.905 35.4674L160.142 31.5333C160.214 31.4572 160.314 31.4141 160.418 31.4141C160.523 31.4141 160.622 31.4572 160.694 31.5333C160.768 31.6058 160.81 31.7051 160.81 31.8087C160.81 31.9123 160.768 32.0115 160.694 32.0841L156.456 36.0182C156.388 36.0955 156.291 36.1411 156.188 36.1441V36.1441Z" fill="white"/>
<path d="M86.0864 96.8281L84.1094 140.434C84.1094 140.434 111.087 140.756 126.603 134.281C127.875 130.124 129.412 126.054 131.203 122.093C133.48 117.498 143.254 110.723 140.183 93.1301C140.183 93.1301 163.214 107.686 169.704 100.998C176.194 94.3103 179.439 63.0735 179.439 63.0735L165.955 58.746L159.827 78.0074C159.827 78.0074 120.964 59.2259 111.906 56.8497C108.542 55.9685 98.0903 61.5235 86.11 69.2107" fill="#7C5DFA"/>
<path d="M111.07 69.9297C111.07 69.9297 117.316 89.317 118.388 97.5235C119.459 105.73 119.616 119.295 119.616 119.295C119.616 119.295 129.501 89.0495 128.281 70.3703L111.07 69.9297Z" fill="#231F20"/>
<path fill-rule="evenodd" clip-rule="evenodd" d="M119.567 119.651H119.615C119.769 119.655 119.908 119.555 119.953 119.407C120.048 119.132 129.838 88.8788 128.618 70.3492C128.609 70.1685 128.46 70.0264 128.279 70.0266L111.076 69.5859C110.964 69.5861 110.859 69.6392 110.792 69.7291C110.726 69.819 110.705 69.9352 110.738 70.0423C110.738 70.0435 110.739 70.0455 110.74 70.0481C110.877 70.4771 116.99 89.5426 118.039 97.5811C119.095 105.67 119.268 119.179 119.268 119.313C119.27 119.484 119.398 119.628 119.567 119.651ZM118.732 97.4788C117.764 90.0433 112.502 73.2997 111.549 70.2941L127.948 70.7268C128.862 86.3295 122.072 110.068 119.922 117.149C119.827 112.987 119.52 103.663 118.732 97.4788Z" fill="#231F20"/>
<path d="M79.603 163.582H154.044L126.626 134.281L84.132 140.434C84.132 140.434 79.0437 151.938 79.5242 160.01C79.5557 160.962 79.5793 162.182 79.603 163.582Z" fill="#231F20"/>
<path fill-rule="evenodd" clip-rule="evenodd" d="M79.6035 163.982H154.045H154.053C154.21 163.983 154.353 163.89 154.416 163.747C154.479 163.603 154.451 163.436 154.344 163.321L126.926 134.019C126.837 133.925 126.708 133.878 126.579 133.893L84.0459 140.046C83.915 140.069 83.8034 140.155 83.7466 140.275C83.5339 140.755 78.6268 151.959 79.1073 160.04C79.1624 161.007 79.2097 162.274 79.2097 163.596C79.2097 163.7 79.2514 163.799 79.3255 163.871C79.3996 163.944 79.4998 163.984 79.6035 163.982ZM153.131 163.195H80.0052C80.0052 162.104 79.9588 161.067 79.9207 160.216C79.9173 160.14 79.914 160.065 79.9107 159.992C79.4696 152.683 83.7308 142.368 84.4004 140.794L126.477 134.704L153.131 163.195Z" fill="#231F20"/>
<path d="M126.137 59.5014L128.271 70.3674C128.271 70.3674 128.326 76.662 121.348 76.0561C117.172 75.6645 113.396 73.4126 111.069 69.9268L108.241 50.9486C108.485 47.493 108.203 44.0206 107.406 40.6491C115.432 38.9889 120.615 31.7266 120.615 31.7266C120.615 31.7266 124.168 35.3459 125.617 36.4475C126.783 37.2455 127.842 38.1895 128.767 39.2564C130.288 41.137 130.737 43.7649 131.13 46.0861C131.626 48.841 131.871 51.6351 131.863 54.4342C131.737 59.7453 126.137 59.5014 126.137 59.5014Z" fill="white"/>
<path fill-rule="evenodd" clip-rule="evenodd" d="M121.318 76.4611H122.256C123.853 76.5421 125.421 76.0133 126.643 74.9819C127.865 73.7504 128.555 72.0894 128.565 70.3554L126.509 59.9143C128.005 59.8651 129.441 59.3104 130.581 58.3406C131.627 57.3281 132.198 55.9235 132.156 54.4695C132.165 51.6491 131.917 48.8339 131.416 46.0583C131.038 43.7844 130.557 41.0463 128.982 39.0635C128.057 37.9801 126.998 37.0178 125.832 36.1995C124.77 35.4041 122.533 33.1792 121.46 32.1117C121.1 31.7536 120.871 31.5257 120.861 31.5257C120.79 31.4463 120.685 31.4054 120.578 31.4156C120.471 31.4244 120.373 31.4789 120.31 31.5651C120.263 31.6359 115.119 38.7724 107.329 40.346C107.235 40.3661 107.153 40.4227 107.101 40.5034C107.047 40.5813 107.029 40.6791 107.054 40.7709C107.79 43.8235 108.071 46.9679 107.889 50.1026C107.857 50.4192 107.857 50.7381 107.889 51.0547C107.897 51.1491 110.716 70.0328 110.716 70.0328C110.725 70.0796 110.741 70.1247 110.764 70.1666C113.141 73.7584 117.025 76.0748 121.318 76.4611ZM121.381 75.7058C117.349 75.3085 113.701 73.1476 111.417 69.8046C108.621 51.0861 108.653 50.8894 108.653 50.8894C108.632 50.6276 108.632 50.3645 108.653 50.1026C108.835 47.0252 108.569 43.9376 107.865 40.9361C114.836 39.3625 119.554 33.7367 120.68 32.2811C121.539 33.1781 124.177 35.8061 125.406 36.7266C126.533 37.5112 127.557 38.4337 128.454 39.4726C129.906 41.2432 130.328 43.717 130.704 45.9247C130.715 45.9931 130.727 46.0613 130.739 46.1292C131.233 48.8631 131.478 51.6362 131.471 54.4144C131.514 55.665 131.038 56.8778 130.156 57.7662C129.027 58.6835 127.609 59.1714 126.154 59.1432C126.042 59.1342 125.933 59.1814 125.863 59.2691C125.795 59.3558 125.766 59.4671 125.784 59.5759L127.911 70.3711C127.874 71.8828 127.266 73.3245 126.21 74.4075C125.083 75.4461 123.461 75.8789 121.381 75.7058Z" fill="#231F20"/>
<path d="M127.092 64.8529C127.092 64.8529 122.713 65.8837 119.31 63.4839C115.907 61.0841 115.766 58.0391 115.766 58.0391C115.766 58.0391 121.153 60.3287 126.139 59.5026L127.092 64.8529Z" fill="#231F20"/>
<path fill-rule="evenodd" clip-rule="evenodd" d="M119.113 63.7654C120.793 64.8894 122.778 65.4691 124.8 65.4256C125.607 65.4369 126.413 65.3577 127.202 65.1896C127.385 65.1502 127.504 64.9724 127.47 64.7883L126.509 59.4379C126.477 59.2521 126.302 59.1262 126.115 59.1547C121.689 59.8916 116.851 58.0614 116.047 57.7569C115.975 57.7298 115.935 57.7148 115.931 57.7148C115.821 57.6674 115.695 57.6825 115.6 57.7541C115.498 57.8182 115.441 57.9334 115.45 58.0531C115.45 58.2262 115.608 61.2948 119.113 63.7654ZM119.538 63.1989C117.905 62.1197 116.729 60.4744 116.238 58.5803C117.703 59.1311 121.83 60.4529 125.887 59.8943L126.722 64.5759C125.674 64.7726 122.256 65.1188 119.538 63.1989Z" fill="#231F20"/>
<path d="M120.324 40.9766C120.324 40.9766 124.822 45.5401 124.16 46.6023C123.498 47.6645 121.057 47.5151 121.057 47.5151" fill="white"/>
<path d="M121.435 47.8652H121.034C120.942 47.8592 120.856 47.8168 120.795 47.7474C120.735 47.678 120.704 47.5873 120.711 47.4954C120.723 47.3029 120.888 47.156 121.081 47.165C121.703 47.165 123.444 47.165 123.869 46.4254C124.137 45.9847 122.373 43.5535 120.08 41.2245C119.946 41.0876 119.947 40.8674 120.084 40.7327C120.221 40.598 120.442 40.5998 120.577 40.7366C121.987 42.1687 125.184 45.6228 124.46 46.7952C123.861 47.7472 122.215 47.8652 121.435 47.8652Z" fill="#231F20"/>
<ellipse cx="126.287" cy="42.3404" rx="0.614338" ry="1.14882" transform="rotate(-13.01 126.287 42.3404)" fill="#231F20"/>
<ellipse cx="116.252" cy="43.356" rx="0.614338" ry="1.14882" transform="rotate(-13.01 116.252 43.356)" fill="#231F20"/>
<path d="M110.82 44.689C109.725 42.9187 107.165 42.6748 105.377 43.3908C104.164 43.8244 103.337 44.9526 103.29 46.2391C103.276 47.0114 103.415 47.7788 103.7 48.4973C104.175 49.8441 104.89 51.0942 105.81 52.1875C106.239 52.7593 106.805 53.214 107.457 53.5093C108.296 53.8053 109.231 53.5625 109.82 52.8956" fill="white"/>
<path d="M108.196 54.01C107.9 54.0098 107.606 53.9537 107.33 53.8448C106.623 53.5246 106.006 53.0354 105.534 52.4207C104.589 51.2932 103.852 50.0063 103.36 48.6203C103.059 47.8538 102.912 47.0358 102.927 46.2126C102.989 44.7917 103.903 43.5487 105.242 43.0653C107.212 42.2785 109.968 42.5933 111.126 44.5052C111.209 44.6727 111.15 44.8753 110.991 44.9731C110.832 45.0709 110.624 45.0318 110.512 44.8829C109.527 43.3093 107.204 43.0496 105.51 43.7263C104.429 44.1091 103.688 45.1076 103.636 46.252C103.625 46.9784 103.756 47.7 104.022 48.3764C104.484 49.6826 105.178 50.8952 106.07 51.9564C106.462 52.4789 106.98 52.8953 107.574 53.1681C108.286 53.4182 109.079 53.2093 109.575 52.641C109.659 52.5288 109.802 52.4759 109.939 52.5053C110.077 52.5347 110.185 52.6411 110.217 52.7781C110.248 52.9151 110.198 53.058 110.087 53.1445C109.597 53.6734 108.917 53.985 108.196 54.01V54.01Z" fill="#231F20"/>
<path d="M124.734 48.9297L119.465 49.4411C119.465 49.4411 120.56 57.5769 122.931 57.3565C125.301 57.1362 125.309 51.2587 124.734 48.9297Z" fill="white"/>
<path fill-rule="evenodd" clip-rule="evenodd" d="M119.119 49.4847C119.3 50.8774 120.347 57.707 122.829 57.707L122.962 57.6991C123.539 57.6319 124.054 57.308 124.364 56.8179C125.672 54.9846 125.522 50.6492 125.073 48.8395C125.031 48.6733 124.874 48.5629 124.703 48.5798L119.426 49.0913C119.331 49.0979 119.244 49.1471 119.19 49.225C119.127 49.2961 119.101 49.3918 119.119 49.4847ZM122.829 57.0067C121.434 57.0067 120.3 52.7264 119.859 49.7522L124.467 49.3352C124.876 51.318 124.829 54.961 123.797 56.4166C123.601 56.7373 123.272 56.9537 122.899 57.0067H122.829Z" fill="#231F20"/>
<path d="M137.92 112.015C137.791 112.015 137.673 111.945 137.61 111.832C137.548 111.719 137.552 111.581 137.621 111.472C137.676 111.37 143.465 101.645 137.928 81.3919C137.882 81.2015 137.993 81.0083 138.18 80.9513C138.272 80.9249 138.371 80.9367 138.454 80.9842C138.537 81.0316 138.597 81.1105 138.621 81.2031C144.253 101.786 138.48 111.448 138.228 111.889C138.153 111.981 138.037 112.028 137.92 112.015Z" fill="#231F20"/>
<path d="M30.8008 83.875L115.836 145.161L200.871 83.875V184.415H30.8008V83.875V83.875Z" fill="white"/>
<path fill-rule="evenodd" clip-rule="evenodd" d="M30.4063 184.414C30.4063 184.631 30.5826 184.807 30.8001 184.807H200.871C201.086 184.803 201.26 184.629 201.265 184.414V83.8737C201.264 83.7256 201.178 83.591 201.044 83.5275C200.919 83.4492 200.76 83.4492 200.634 83.5275L115.835 144.64L31.0286 83.5275C30.9033 83.4492 30.7442 83.4492 30.619 83.5275C30.4867 83.5918 30.4038 83.7268 30.4063 83.8737V184.414ZM200.516 184.02H31.1703V84.6448L115.599 145.474C115.738 145.575 115.925 145.575 116.064 145.474L200.516 84.6448V184.02Z" fill="#231F20"/>
<path d="M30.8005 184.808C30.6562 184.808 30.5232 184.73 30.454 184.603C30.3522 184.414 30.4182 184.178 30.6036 184.068L108.408 139.605C108.598 139.499 108.837 139.566 108.944 139.755C108.998 139.844 109.013 139.951 108.986 140.052C108.96 140.153 108.893 140.239 108.802 140.29L30.9896 184.753C30.9321 184.787 30.8672 184.806 30.8005 184.808Z" fill="#231F20"/>
<path d="M200.87 184.805C200.801 184.803 200.733 184.784 200.673 184.75L122.868 140.287C122.679 140.18 122.612 139.941 122.718 139.752C122.828 139.567 123.064 139.501 123.254 139.602L201.059 184.066C201.248 184.172 201.315 184.412 201.208 184.601C201.142 184.726 201.012 184.804 200.87 184.805V184.805Z" fill="#231F20"/>
<path d="M71.3389 138.297C71.3389 138.297 74.781 147.251 75.5923 147.739C76.4035 148.227 85.9893 152.145 85.304 153.978C84.6188 155.812 80.3024 153.577 80.3024 153.577C80.3024 153.577 86.517 160.761 84.8787 162.027C83.2404 163.294 77.7268 165.867 75.5135 164.821C73.3002 163.774 62.2651 150.115 59.9258 144.182" fill="white"/>
<path d="M76.8543 165.485C76.3408 165.501 75.83 165.404 75.3578 165.202C72.9948 164.077 61.8889 150.252 59.5653 144.351C59.5146 144.219 59.5384 144.07 59.6276 143.96C59.7168 143.85 59.8579 143.796 59.9978 143.818C60.1377 143.84 60.255 143.936 60.3057 144.068C62.6687 150.118 73.7746 163.581 75.6886 164.525C77.6026 165.469 82.9823 163.077 84.6521 161.779C84.7247 161.712 84.7672 161.618 84.7703 161.519C84.9199 159.946 81.3833 155.484 80.0443 153.895C79.9207 153.752 79.9162 153.542 80.0336 153.394C80.151 153.246 80.3572 153.202 80.5248 153.289C81.3125 153.698 83.5652 154.674 84.5734 154.288C84.7604 154.226 84.9084 154.081 84.9751 153.895C85.1641 153.384 83.9196 152.101 76.9016 148.852C76.0509 148.458 75.602 148.246 75.4208 148.128C74.5701 147.585 71.8291 140.598 71.0099 138.473C70.9716 138.375 70.9742 138.266 71.0171 138.17C71.06 138.074 71.1397 137.999 71.2383 137.962C71.4406 137.887 71.6652 137.989 71.7424 138.19C73.3808 142.447 75.3657 147.081 75.854 147.475C75.9879 147.561 76.5629 147.829 77.2324 148.136C82.8878 150.748 86.2747 152.676 85.7155 154.17C85.5687 154.568 85.255 154.882 84.8569 155.028C83.7949 155.245 82.6914 155.118 81.7063 154.666C83.2265 156.562 85.7391 159.969 85.5816 161.59C85.5557 161.898 85.4049 162.183 85.1641 162.377C83.8645 163.361 79.6741 165.485 76.8543 165.485Z" fill="#231F20"/>
<path d="M86.1098 69.2422C65.8513 82.2405 41.2135 101.368 39.134 105.837C35.8101 112.919 60.6686 148.53 60.6686 148.53L74.1296 140.001L61.8264 113.304L86.0862 96.8203" fill="#7C5DFA"/>
<path d="M70.5538 107.802C70.4353 107.806 70.323 107.75 70.2545 107.653C70.144 107.489 70.1822 107.267 70.3412 107.149L97.5783 88.1004C97.656 88.0432 97.7537 88.02 97.8488 88.0364C97.944 88.0527 98.0283 88.1071 98.0824 88.187C98.1368 88.2663 98.1574 88.3639 98.1397 88.4584C98.1219 88.5528 98.0673 88.6364 97.9879 88.6906L70.7586 107.74C70.6992 107.783 70.6272 107.805 70.5538 107.802V107.802Z" fill="#231F20"/>
<path d="M188.898 161.784L221.909 141.602L193.939 153.239L188.898 161.784V161.784Z" fill="#231F20"/>
<path fill-rule="evenodd" clip-rule="evenodd" d="M188.621 162.061C188.694 162.135 188.793 162.178 188.897 162.179C188.971 162.167 189.042 162.137 189.102 162.092L222.136 141.942C222.313 141.835 222.378 141.611 222.285 141.427C222.191 141.243 221.972 141.162 221.782 141.241L193.781 152.878C193.703 152.911 193.639 152.97 193.599 153.044L188.558 161.581C188.467 161.736 188.493 161.934 188.621 162.061ZM190.039 160.605L194.206 153.524L217.363 143.901L190.039 160.605Z" fill="#231F20"/>
<path d="M193.938 153.239L204.728 158.754L221.907 141.602L193.938 153.239V153.239Z" fill="white"/>
<path fill-rule="evenodd" clip-rule="evenodd" d="M204.566 159.065C204.617 159.093 204.674 159.107 204.732 159.105C204.829 159.111 204.924 159.073 204.992 159.003L222.17 141.85C222.295 141.732 222.315 141.542 222.218 141.401C222.123 141.261 221.942 141.205 221.785 141.268L193.799 152.905C193.671 152.963 193.586 153.087 193.579 153.227C193.571 153.367 193.649 153.497 193.776 153.558L204.566 159.065ZM204.661 158.31L194.792 153.274L220.367 142.629L204.661 158.31Z" fill="#231F20"/>
<path d="M221.909 141.602L186.37 150.084L178.289 145.465L221.909 141.602V141.602Z" fill="white"/>
<path fill-rule="evenodd" clip-rule="evenodd" d="M186.165 150.394C186.218 150.425 186.278 150.441 186.338 150.441L186.425 150.433L221.964 141.959C222.146 141.913 222.262 141.735 222.232 141.55C222.2 141.366 222.033 141.236 221.846 141.251L178.226 145.114C178.071 145.131 177.945 145.244 177.911 145.395C177.877 145.547 177.944 145.703 178.076 145.783L186.165 150.394ZM186.394 149.694L179.431 145.72L217.057 142.424L186.394 149.694Z" fill="#231F20"/>
<path d="M186.371 150.084L188.899 161.784L193.94 153.239L221.91 141.602L186.371 150.084V150.084Z" fill="white"/>
<path fill-rule="evenodd" clip-rule="evenodd" d="M188.844 162.142H188.9C189.038 162.153 189.171 162.083 189.238 161.961L194.216 153.526L222.052 141.936C222.239 141.876 222.341 141.675 222.28 141.488C222.22 141.301 222.019 141.199 221.831 141.26L186.292 149.734C186.2 149.754 186.12 149.811 186.07 149.891C186.02 149.97 186.003 150.067 186.025 150.159L188.545 161.867C188.579 162.011 188.698 162.12 188.844 162.142ZM189.057 160.797L186.797 150.34L217.633 142.983L193.799 152.897C193.728 152.929 193.668 152.981 193.626 153.046L189.057 160.797Z" fill="#231F20"/>
<path d="M181.612 163.412C181.439 163.408 181.288 163.292 181.241 163.125C181.194 162.959 181.262 162.781 181.407 162.688L182.722 161.846C182.905 161.726 183.15 161.777 183.27 161.96C183.389 162.142 183.338 162.387 183.155 162.507L181.824 163.357C181.76 163.393 181.686 163.412 181.612 163.412Z" fill="#D1D3D4"/>
<path fill-rule="evenodd" clip-rule="evenodd" d="M22.4212 139.77C22.4839 139.916 22.6303 140.009 22.7896 140.003C22.9106 140.006 23.0264 139.954 23.1047 139.862C23.8136 139.106 24.5461 138.375 25.3337 137.682C25.4083 137.608 25.4502 137.508 25.4502 137.403C25.4502 137.298 25.4083 137.197 25.3337 137.124C25.2611 137.05 25.1618 137.008 25.0581 137.008C24.9543 137.008 24.855 137.05 24.7824 137.124C23.9947 137.832 23.2307 138.556 22.506 139.342C22.3921 139.454 22.3584 139.624 22.4212 139.77ZM18.8513 144.882C18.7472 144.885 18.6458 144.848 18.5678 144.779C18.4822 144.721 18.424 144.63 18.4062 144.528C18.3885 144.426 18.4126 144.321 18.4733 144.236C19.0719 143.371 19.7177 142.513 20.3794 141.695C20.517 141.529 20.7629 141.504 20.9307 141.64C21.0997 141.775 21.1278 142.021 20.9937 142.191C20.34 142.977 19.7099 143.835 19.1191 144.685C19.0574 144.792 18.9499 144.864 18.8277 144.882H18.8513ZM15.4171 150.287C15.4904 150.314 15.5706 150.317 15.6456 150.295L15.6219 150.287C15.7512 150.285 15.8714 150.22 15.9449 150.114C16.4017 149.186 16.8979 148.265 17.4335 147.376C17.5418 147.186 17.4789 146.945 17.2918 146.833C17.2023 146.779 17.0949 146.764 16.994 146.791C16.893 146.817 16.8073 146.884 16.7562 146.975C16.2127 147.887 15.7007 148.824 15.236 149.76C15.1898 149.854 15.183 149.962 15.217 150.061C15.251 150.16 15.323 150.241 15.4171 150.287ZM13.2826 156.117C13.2436 156.125 13.2035 156.125 13.1645 156.117C13.0638 156.087 12.9797 156.017 12.9309 155.924C12.882 155.831 12.8726 155.722 12.9045 155.622C13.2117 154.63 13.574 153.623 13.9757 152.632C14.0708 152.453 14.2865 152.375 14.474 152.453C14.6615 152.53 14.7595 152.737 14.7004 152.931C14.3144 153.899 13.96 154.882 13.6528 155.858C13.6006 156.017 13.4499 156.122 13.2826 156.117ZM11.8569 162.247H11.9121C12.1148 162.243 12.2818 162.087 12.298 161.885C12.4319 160.87 12.621 159.839 12.8494 158.824C12.8729 158.722 12.8544 158.614 12.7982 158.526C12.742 158.437 12.6527 158.375 12.5501 158.352C12.3375 158.308 12.1283 158.44 12.0775 158.651C11.8412 159.713 11.66 160.768 11.5183 161.798C11.4901 162.015 11.6406 162.214 11.8569 162.247ZM176.178 166.629C176.001 166.628 175.847 166.508 175.801 166.338C175.755 166.168 175.829 165.988 175.981 165.898C176.997 165.315 177.91 164.788 178.698 164.324C178.788 164.269 178.896 164.252 178.998 164.278C179.1 164.303 179.188 164.368 179.242 164.458C179.351 164.645 179.292 164.886 179.108 165.001C178.32 165.473 177.399 166.008 176.375 166.574C176.321 166.605 176.262 166.624 176.201 166.629H176.178ZM11.2426 168.148C11.2551 168.356 11.4278 168.518 11.6364 168.518H11.66C11.7645 168.512 11.8623 168.464 11.9318 168.386C12.0013 168.308 12.0367 168.205 12.0302 168.101C11.983 167.503 11.983 166.889 11.983 166.283V165.001C11.9872 164.896 11.9498 164.794 11.8789 164.718C11.8079 164.641 11.7094 164.596 11.6049 164.591C11.4999 164.585 11.3967 164.622 11.3194 164.693C11.2421 164.764 11.1973 164.864 11.1953 164.969V166.283C11.1953 166.595 11.2072 166.909 11.2191 167.221C11.2308 167.532 11.2426 167.842 11.2426 168.148ZM170.664 169.674C170.519 169.677 170.385 169.598 170.318 169.47C170.217 169.278 170.287 169.042 170.475 168.935C171.363 168.462 172.206 168.003 173.003 167.569L173.24 167.44C173.363 167.352 173.526 167.343 173.658 167.416C173.791 167.49 173.869 167.632 173.861 167.783C173.852 167.934 173.758 168.067 173.618 168.124C172.751 168.604 171.83 169.108 170.845 169.635C170.796 169.66 170.743 169.673 170.688 169.674H170.664ZM164.717 172.357C164.782 172.494 164.921 172.58 165.072 172.578C165.133 172.577 165.192 172.561 165.245 172.531C166.222 172.043 167.159 171.563 168.057 171.098C168.251 170.999 168.326 170.761 168.226 170.567C168.126 170.374 167.888 170.298 167.695 170.398C166.797 170.87 165.859 171.342 164.891 171.83C164.697 171.928 164.62 172.164 164.717 172.357ZM12.6919 174.679C12.5146 174.678 12.3599 174.558 12.3138 174.387C12.0254 173.365 11.794 172.327 11.6206 171.279C11.5858 171.062 11.734 170.858 11.9515 170.823C12.169 170.788 12.3735 170.936 12.4083 171.154C12.5657 172.183 12.7813 173.202 13.0542 174.206C13.0834 174.307 13.0716 174.414 13.0214 174.506C12.9712 174.597 12.8866 174.665 12.7864 174.694L12.6919 174.679ZM159.078 175.111C159.141 175.249 159.28 175.336 159.432 175.332C159.489 175.333 159.545 175.322 159.598 175.3L162.441 173.931C162.637 173.835 162.718 173.599 162.622 173.404C162.526 173.208 162.29 173.127 162.094 173.223C161.181 173.671 160.236 174.128 159.259 174.584C159.165 174.63 159.093 174.711 159.059 174.81C159.025 174.909 159.032 175.017 159.078 175.111ZM153.706 177.96C153.552 177.958 153.412 177.87 153.344 177.731C153.299 177.636 153.296 177.526 153.335 177.428C153.373 177.33 153.451 177.252 153.548 177.212C153.759 177.117 153.969 177.022 154.178 176.928L154.179 176.928C154.936 176.587 155.679 176.253 156.408 175.914C156.605 175.823 156.84 175.909 156.931 176.107C157.023 176.304 156.936 176.539 156.738 176.63C155.801 177.063 154.848 177.495 153.863 177.928C153.814 177.951 153.76 177.961 153.706 177.96ZM15.0706 180.509C14.9258 180.511 14.792 180.432 14.724 180.304C14.2094 179.374 13.7491 178.416 13.3456 177.432C13.2921 177.302 13.3125 177.152 13.3991 177.041C13.4857 176.929 13.6253 176.872 13.7654 176.891C13.9055 176.91 14.0247 177.003 14.0781 177.133C14.4652 178.092 14.9125 179.025 15.4171 179.927C15.5176 180.118 15.4479 180.355 15.2596 180.462C15.2012 180.492 15.1364 180.508 15.0706 180.509ZM141.704 182.671C141.796 182.78 141.939 182.832 142.08 182.806V182.814C142.131 182.814 142.181 182.806 142.23 182.791L145.16 181.595C145.36 181.508 145.455 181.277 145.372 181.075C145.289 180.876 145.061 180.781 144.86 180.863L141.938 182.02C141.798 182.045 141.681 182.143 141.633 182.278C141.584 182.412 141.611 182.562 141.704 182.671ZM18.4102 185.482C18.487 185.566 18.5955 185.614 18.7095 185.615V185.623C18.8177 185.628 18.9231 185.588 19.001 185.513C19.152 185.357 19.152 185.11 19.001 184.954C18.3091 184.187 17.6621 183.381 17.0633 182.539C16.9875 182.411 16.8459 182.337 16.6974 182.347C16.5489 182.357 16.4188 182.45 16.3613 182.587C16.3037 182.724 16.3285 182.882 16.4253 182.995C17.0398 183.861 17.7025 184.691 18.4102 185.482ZM130.249 187.11C130.032 187.145 129.827 186.997 129.793 186.78C129.758 186.563 129.906 186.358 130.123 186.323C131.124 185.985 132.116 185.647 133.093 185.301C133.299 185.232 133.523 185.34 133.597 185.545C133.632 185.642 133.627 185.749 133.583 185.842C133.538 185.935 133.458 186.006 133.361 186.04C132.376 186.386 131.384 186.733 130.375 187.071L130.249 187.11ZM23.3488 189.841C23.2635 189.841 23.1804 189.813 23.1125 189.762C22.254 189.125 21.427 188.448 20.6551 187.748C20.5805 187.674 20.5386 187.573 20.5386 187.468C20.5386 187.363 20.5805 187.263 20.6551 187.189C20.7276 187.115 20.827 187.073 20.9307 187.073C21.0345 187.073 21.1338 187.115 21.2064 187.189C21.9738 187.884 22.7756 188.541 23.6088 189.156C23.7828 189.286 23.818 189.533 23.6875 189.707C23.6025 189.803 23.4766 189.853 23.3488 189.841ZM117.86 190.572C117.905 190.738 118.055 190.853 118.226 190.856H118.222C118.265 190.861 118.308 190.855 118.348 190.84C119.364 190.557 120.372 190.258 121.373 189.959C121.474 189.931 121.56 189.864 121.611 189.772C121.661 189.68 121.672 189.571 121.64 189.471C121.576 189.265 121.359 189.15 121.152 189.211L118.135 190.084C117.926 190.146 117.804 190.362 117.86 190.572ZM28.4844 193.098C28.5404 193.127 28.6023 193.143 28.6655 193.145V193.161C28.883 193.211 29.0999 193.075 29.1499 192.858C29.1999 192.641 29.0642 192.424 28.8467 192.374C27.9094 191.894 26.9957 191.383 26.1371 190.856C26.049 190.798 25.9411 190.779 25.8385 190.803C25.7358 190.826 25.6474 190.891 25.5937 190.981C25.5381 191.07 25.5202 191.177 25.5438 191.279C25.5675 191.381 25.6308 191.469 25.7197 191.524C26.6019 192.083 27.5313 192.61 28.4844 193.098ZM106.005 193.987C105.865 194.003 105.726 193.942 105.643 193.828C105.559 193.714 105.542 193.564 105.599 193.434C105.656 193.305 105.778 193.216 105.919 193.2C106.943 192.964 107.959 192.728 108.975 192.476C109.186 192.427 109.397 192.557 109.447 192.768C109.474 192.87 109.457 192.978 109.403 193.069C109.348 193.159 109.259 193.223 109.156 193.248C108.14 193.491 107.124 193.735 106.092 193.964L106.005 193.987ZM34.4705 195.608C34.4289 195.616 34.3862 195.616 34.3445 195.608C33.3363 195.254 32.336 194.868 31.3829 194.467C31.2866 194.426 31.2108 194.347 31.1724 194.25C31.1339 194.153 31.136 194.044 31.1781 193.948C31.2646 193.752 31.4922 193.661 31.6901 193.743C32.6274 194.137 33.612 194.53 34.6044 194.868C34.8219 194.905 34.9683 195.111 34.9313 195.329C34.8943 195.546 34.688 195.692 34.4705 195.655V195.608ZM93.3084 196.143C93.3395 196.331 93.5036 196.468 93.6944 196.466H93.7653L96.8686 195.907C97.0813 195.867 97.222 195.663 97.1837 195.451C97.1665 195.348 97.1082 195.256 97.0221 195.196C96.9359 195.137 96.8294 195.115 96.7268 195.136L93.6313 195.687C93.4179 195.727 93.2749 195.929 93.3084 196.143ZM40.5276 197.37H40.4331C39.3855 197.127 38.3537 196.859 37.3691 196.584C37.1632 196.519 37.0449 196.304 37.1013 196.096C37.1622 195.887 37.3808 195.767 37.5897 195.828C38.5663 196.104 39.5824 196.371 40.6143 196.615C40.7165 196.637 40.8053 196.7 40.8603 196.789C40.9152 196.878 40.9316 196.986 40.9057 197.087C40.8522 197.258 40.6905 197.371 40.5119 197.363L40.5276 197.37ZM87.0859 197.111C87.1167 197.305 87.2833 197.448 87.4798 197.449L87.5034 197.441L90.654 196.977C90.7576 196.96 90.8501 196.902 90.9107 196.816C90.9713 196.73 90.9952 196.624 90.977 196.521C90.9615 196.418 90.9052 196.326 90.8206 196.265C90.7361 196.204 90.6305 196.18 90.528 196.198L87.4246 196.662C87.3197 196.676 87.2247 196.731 87.161 196.816C87.0973 196.9 87.0702 197.006 87.0859 197.111ZM81.2337 198.236C81.0929 198.244 80.9584 198.177 80.8808 198.06C80.8031 197.942 80.7941 197.792 80.8571 197.666C80.9202 197.54 81.0457 197.458 81.1864 197.449C82.2366 197.334 83.2868 197.208 84.337 197.071C84.5545 197.043 84.7538 197.196 84.782 197.414C84.8103 197.631 84.6569 197.83 84.4394 197.858L81.2888 198.228L81.2337 198.236ZM46.6477 198.519H46.6871C46.88 198.51 47.0389 198.364 47.0651 198.173C47.081 198.07 47.055 197.964 46.9929 197.88C46.9308 197.796 46.8378 197.74 46.7343 197.725C45.6868 197.575 44.647 197.402 43.6467 197.213C43.506 197.186 43.3617 197.237 43.2682 197.345C43.1747 197.453 43.1462 197.603 43.1934 197.738C43.2406 197.874 43.3564 197.973 43.4971 198C44.5447 198.189 45.5922 198.362 46.6477 198.519ZM74.9639 198.842C74.7464 198.842 74.5701 198.666 74.5701 198.448C74.5701 198.231 74.7464 198.055 74.9639 198.055C76.0115 197.968 77.0512 197.874 78.1145 197.772C78.3297 197.757 78.5192 197.912 78.5477 198.126C78.5587 198.23 78.5275 198.335 78.4609 198.416C78.3943 198.497 78.298 198.549 78.1933 198.559C77.1431 198.658 76.0929 198.753 75.0427 198.842H74.9639ZM49.8141 198.913C50.8459 199.023 51.8935 199.117 52.9647 199.196H53.0513C53.2688 199.196 53.4452 199.02 53.4452 198.802C53.4452 198.585 53.2688 198.409 53.0513 198.409C51.9565 198.33 50.9168 198.236 49.9007 198.134C49.7966 198.118 49.6906 198.147 49.6084 198.212C49.5262 198.278 49.4751 198.375 49.4675 198.48C49.4445 198.695 49.5992 198.888 49.8141 198.913ZM68.6784 199.251C68.4713 199.251 68.3009 199.088 68.2925 198.881C68.286 198.777 68.3214 198.674 68.3909 198.596C68.4604 198.518 68.5581 198.47 68.6627 198.464C69.7102 198.417 70.7578 198.354 71.8133 198.283C71.9183 198.275 72.0223 198.309 72.1011 198.379C72.18 198.449 72.2268 198.548 72.2307 198.653C72.2394 198.757 72.2058 198.859 72.1376 198.938C72.0694 199.016 71.9723 199.064 71.8684 199.07C70.8208 199.141 69.7733 199.204 68.7178 199.251H68.6784ZM56.4515 199.391C57.3573 199.427 58.2858 199.463 59.2266 199.463H59.2344C59.3423 199.468 59.4474 199.428 59.5259 199.354C59.6044 199.28 59.6499 199.178 59.6519 199.07C59.6519 198.966 59.6104 198.866 59.5365 198.792C59.4627 198.718 59.3625 198.677 59.2581 198.677C58.179 198.661 57.1314 198.629 56.1074 198.59C56.003 198.586 55.9011 198.623 55.8243 198.694C55.7474 198.765 55.702 198.863 55.6979 198.968C55.6932 199.183 55.8603 199.364 56.0759 199.377L56.4515 199.391ZM61.9833 199.07C61.9875 199.286 62.1614 199.459 62.3772 199.463H62.385L64.2675 199.424L65.5357 199.385C65.6415 199.383 65.7421 199.338 65.8147 199.261C65.8874 199.184 65.9259 199.081 65.9216 198.976C65.9051 198.762 65.7265 198.597 65.512 198.598L64.2439 198.637L62.3693 198.677C62.1549 198.681 61.9833 198.856 61.9833 199.07ZM99.46 194.994C99.5001 195.176 99.6598 195.306 99.8459 195.309L99.9247 195.301L103.012 194.656C103.114 194.635 103.204 194.574 103.26 194.487C103.316 194.399 103.335 194.293 103.312 194.192C103.291 194.089 103.23 194 103.143 193.942C103.056 193.885 102.949 193.864 102.847 193.885L99.7672 194.53C99.6648 194.551 99.5749 194.612 99.5173 194.699C99.4597 194.786 99.4391 194.892 99.46 194.994ZM111.716 192.154C111.742 192.367 111.933 192.521 112.146 192.501C112.183 192.511 112.222 192.511 112.259 192.5C113.283 192.248 114.299 191.986 115.308 191.713C115.448 191.677 115.559 191.568 115.598 191.428C115.636 191.288 115.597 191.138 115.495 191.035C115.393 190.931 115.244 190.89 115.103 190.926L112.062 191.713C111.845 191.739 111.69 191.937 111.716 192.154ZM123.885 188.778C123.932 188.943 124.084 189.057 124.255 189.054V189.062C124.296 189.062 124.336 189.054 124.374 189.038C125.39 188.723 126.39 188.409 127.382 188.086C127.589 188.018 127.702 187.797 127.634 187.59C127.604 187.49 127.534 187.406 127.44 187.359C127.346 187.311 127.237 187.304 127.138 187.338C126.866 187.425 126.593 187.512 126.32 187.599C125.599 187.829 124.876 188.06 124.145 188.283C124.044 188.313 123.96 188.383 123.912 188.476C123.863 188.569 123.853 188.678 123.885 188.778ZM136.188 185.033C136.024 185.029 135.878 184.926 135.818 184.773C135.744 184.569 135.85 184.344 136.054 184.27C136.733 184.024 137.4 183.775 138.064 183.528L138.067 183.526L138.069 183.526C138.382 183.409 138.695 183.292 139.008 183.176C139.202 183.127 139.403 183.232 139.473 183.419C139.544 183.606 139.462 183.817 139.284 183.908C138.307 184.278 137.323 184.64 136.322 185.002C136.282 185.027 136.236 185.04 136.188 185.041V185.033ZM147.562 180.21C147.619 180.36 147.764 180.457 147.924 180.454C147.976 180.455 148.027 180.444 148.074 180.422L150.981 179.195C151.181 179.108 151.272 178.875 151.185 178.676C151.098 178.476 150.866 178.384 150.665 178.471C149.963 178.799 149.247 179.091 148.521 179.388L148.521 179.388C148.271 179.491 148.019 179.594 147.767 179.698C147.571 179.785 147.48 180.012 147.562 180.21Z" fill="#D1D3D4"/>
<path d="M27.4989 135.766C27.3788 135.767 27.2652 135.711 27.1917 135.617C27.0586 135.442 27.0902 135.193 27.2626 135.058C27.6879 134.743 28.1133 134.428 28.5465 134.122C28.6615 134.032 28.8164 134.014 28.9492 134.074C29.082 134.133 29.171 134.261 29.1807 134.406C29.1904 134.551 29.1191 134.69 28.9954 134.767C28.5701 135.066 28.1526 135.373 27.7431 135.687C27.6727 135.74 27.5868 135.768 27.4989 135.766Z" fill="#D1D3D4"/>
<path d="M204.138 88.7471C204.037 88.7502 203.939 88.7101 203.87 88.637C203.796 88.5645 203.754 88.4652 203.754 88.3616C203.754 88.258 203.796 88.1587 203.87 88.0862C203.87 88.0862 204.256 87.6771 204.925 86.9375C205.011 86.8112 205.163 86.7462 205.314 86.7707C205.465 86.7953 205.588 86.905 205.63 87.052C205.671 87.199 205.624 87.3569 205.508 87.4568C204.831 88.2436 204.437 88.6291 204.437 88.6291C204.359 88.7101 204.25 88.7532 204.138 88.7471Z" fill="#D1D3D4"/>
<path fill-rule="evenodd" clip-rule="evenodd" d="M204.967 17.2377H205.037V17.2141C205.221 17.2187 205.382 17.0937 205.423 16.9151C205.457 16.7008 205.314 16.4986 205.1 16.4587C204.042 16.2777 202.975 16.1569 201.903 16.0968C201.797 16.0831 201.69 16.116 201.61 16.1869C201.53 16.2578 201.484 16.3598 201.485 16.4666C201.479 16.571 201.514 16.6736 201.584 16.7519C201.653 16.8301 201.751 16.8775 201.855 16.8836C202.898 16.9406 203.937 17.0588 204.967 17.2377ZM211.102 19.0867C211.048 19.0975 210.992 19.0975 210.937 19.0867C209.988 18.6553 209.012 18.2873 208.015 17.9852C207.874 17.9444 207.766 17.8317 207.731 17.6896C207.696 17.5475 207.739 17.3976 207.845 17.2962C207.951 17.1949 208.103 17.1576 208.243 17.1983C209.276 17.5074 210.286 17.886 211.268 18.3314C211.363 18.3741 211.436 18.4533 211.472 18.5511C211.508 18.6489 211.502 18.757 211.457 18.8507C211.39 18.984 211.252 19.0668 211.102 19.0631V19.0867ZM216.143 22.4307C216.217 22.4902 216.309 22.5234 216.403 22.5251V22.5015C216.502 22.5015 216.597 22.4651 216.671 22.3992C216.822 22.2436 216.822 21.9962 216.671 21.8406C215.863 21.124 215.002 20.469 214.095 19.8814C213.977 19.7963 213.822 19.7834 213.691 19.8478C213.56 19.9121 213.476 20.0433 213.472 20.1888C213.467 20.3342 213.544 20.4702 213.67 20.5423C214.541 21.1084 215.368 21.7396 216.143 22.4307ZM220.452 27.3798C220.316 27.3808 220.188 27.3127 220.113 27.1988C219.57 26.3126 218.965 25.4659 218.302 24.6653C218.166 24.4976 218.19 24.2519 218.357 24.1145C218.435 24.0463 218.539 24.0129 218.642 24.0218C218.746 24.0307 218.842 24.0811 218.908 24.1617C219.592 24.9831 220.218 25.8507 220.783 26.7582C220.84 26.8463 220.86 26.954 220.836 27.0566C220.812 27.1591 220.747 27.2474 220.657 27.3011C220.595 27.3386 220.524 27.3577 220.452 27.3562V27.3798ZM222.705 32.864C222.759 33.0256 222.912 33.1336 223.083 33.1315V33.1079C223.124 33.1177 223.167 33.1203 223.209 33.1157C223.412 33.045 223.521 32.8242 223.453 32.62C223.123 31.6001 222.736 30.5993 222.295 29.6222C222.236 29.4943 222.113 29.4076 221.973 29.3948C221.832 29.382 221.696 29.445 221.614 29.5601C221.533 29.6751 221.519 29.8248 221.578 29.9527C222.007 30.9017 222.383 31.8736 222.705 32.864ZM224.508 39.3002C224.312 39.2987 224.145 39.1556 224.114 38.9618C223.965 37.9075 223.768 36.8689 223.539 35.8775C223.492 35.6602 223.629 35.4453 223.847 35.3975C224.064 35.3497 224.279 35.4871 224.327 35.7044C224.556 36.7115 224.752 37.7737 224.91 38.8517C224.938 39.0657 224.792 39.2639 224.579 39.3002H224.508ZM224.626 45.2092C224.631 45.4234 224.806 45.5948 225.02 45.5947H225.028C225.244 45.5863 225.414 45.4091 225.414 45.1934C225.39 44.1076 225.335 43.0376 225.257 42.0068C225.249 41.9024 225.199 41.8054 225.119 41.7375C225.039 41.6695 224.936 41.6362 224.831 41.6449C224.727 41.6509 224.63 41.6986 224.562 41.7771C224.494 41.8556 224.46 41.9583 224.469 42.0619C224.548 43.0848 224.626 44.1391 224.626 45.2092ZM224.839 51.9365H224.8C224.585 51.9157 224.427 51.7263 224.445 51.5116C224.445 51.3232 224.466 51.1372 224.486 50.951C224.502 50.8106 224.517 50.6701 224.524 50.5281C224.524 50.0826 224.55 49.6401 224.576 49.204L224.576 49.204C224.593 48.9237 224.609 48.6462 224.619 48.3722C224.618 48.2672 224.661 48.1666 224.737 48.0939C224.813 48.0211 224.915 47.9824 225.02 47.9867C225.236 47.9951 225.406 48.1723 225.406 48.3879C225.406 48.9332 225.374 49.4829 225.342 50.0442L225.342 50.0443C225.331 50.2201 225.321 50.397 225.312 50.5753C225.312 50.8269 225.286 51.0741 225.259 51.3234C225.25 51.4094 225.241 51.4957 225.233 51.5824C225.209 51.7825 225.041 51.934 224.839 51.9365ZM223.398 58.1367H223.516H223.547C223.7 58.1381 223.841 58.0527 223.91 57.9164C224.209 56.8227 224.477 55.7762 224.697 54.7691C224.736 54.557 224.601 54.352 224.39 54.3048C224.179 54.2609 223.973 54.3941 223.925 54.6038C223.721 55.5874 223.453 56.6102 223.138 57.641C223.076 57.8492 223.191 58.069 223.398 58.1367ZM221.224 64.0536C221.169 64.0648 221.113 64.0648 221.058 64.0536C220.963 64.0108 220.89 63.9316 220.854 63.8338C220.819 63.736 220.824 63.628 220.869 63.5343C221.318 62.5507 221.736 61.5751 222.098 60.6309C222.135 60.5324 222.21 60.4528 222.306 60.4099C222.403 60.367 222.512 60.3644 222.61 60.4027C222.812 60.4832 222.914 60.71 222.838 60.9141C222.46 61.8741 222.051 62.8655 221.586 63.8569C221.515 63.9733 221.391 64.0471 221.255 64.0536H221.224ZM218.105 69.64C218.163 69.6773 218.232 69.6964 218.302 69.6951H218.333C218.462 69.6837 218.576 69.6102 218.64 69.4984C219.184 68.5542 219.704 67.6179 220.176 66.6973C220.276 66.5039 220.2 66.2661 220.007 66.1662C219.813 66.0662 219.575 66.142 219.475 66.3353C219.01 67.2402 218.498 68.1765 217.963 69.105C217.909 69.1943 217.894 69.3016 217.92 69.4024C217.947 69.5033 218.014 69.589 218.105 69.64ZM214.93 75.0769C214.783 75.0815 214.646 75.0015 214.577 74.871C214.508 74.7404 214.52 74.5821 214.607 74.4632C215.182 73.6056 215.765 72.7243 216.332 71.8116C216.45 71.6303 216.69 71.5747 216.876 71.6857C217.058 71.8032 217.111 72.0461 216.994 72.2286C216.451 73.102 215.868 73.999 215.261 74.9038C215.194 75.0046 215.083 75.0684 214.962 75.0769H214.93ZM210.992 80.1677C211.062 80.2156 211.144 80.2429 211.228 80.2464L211.26 80.2621C211.376 80.2501 211.48 80.1865 211.543 80.089C212.166 79.2786 212.796 78.4209 213.442 77.5239C213.568 77.3458 213.526 77.0992 213.347 76.9732C213.169 76.8472 212.922 76.8894 212.796 77.0676C212.158 77.9567 211.528 78.8222 210.921 79.609C210.788 79.7833 210.82 80.0321 210.992 80.1677ZM207.03 85.1089C207.103 85.1695 207.195 85.2029 207.29 85.2033C207.42 85.2162 207.547 85.163 207.629 85.0617C208.243 84.3378 208.928 83.5117 209.653 82.599C209.72 82.5182 209.75 82.414 209.739 82.3102C209.727 82.2064 209.673 82.1118 209.59 82.0482C209.42 81.9143 209.174 81.9424 209.039 82.1111C208.699 82.5211 208.369 82.9259 208.052 83.3149L208.052 83.3151C207.694 83.7547 207.352 84.1741 207.03 84.5581C206.956 84.6307 206.914 84.7299 206.914 84.8335C206.914 84.9371 206.956 85.0364 207.03 85.1089Z" fill="#D1D3D4"/>
<path d="M197.106 17.0074C196.966 17.0187 196.83 16.9541 196.749 16.838C196.669 16.7219 196.657 16.5719 196.718 16.4445C196.779 16.3172 196.903 16.2318 197.043 16.2206C197.565 16.1391 198.091 16.0866 198.619 16.0632C198.836 16.0502 199.023 16.2158 199.036 16.433C199.049 16.6503 198.883 16.837 198.666 16.85C197.713 16.9051 197.146 16.9917 197.146 16.9917L197.106 17.0074Z" fill="#D1D3D4"/>
<path d="M1.63035 52.0052C0.72805 50.9024 0.891456 49.2768 1.99519 48.3756L24.8475 29.7176C25.9496 28.8178 27.5724 28.9809 28.4733 30.0821L37.7046 41.3646C38.6069 42.4674 38.4435 44.093 37.3398 44.9942L14.4874 63.6522C13.3853 64.552 11.7626 64.3889 10.8616 63.2878L1.63035 52.0052Z" fill="white"/>
<path fill-rule="evenodd" clip-rule="evenodd" d="M12.5432 64.8661H12.7873C13.3395 64.8672 13.8745 64.6751 14.2996 64.3232L38.0475 44.9359C38.5448 44.5396 38.8611 43.9596 38.9248 43.3273C38.9886 42.6949 38.7944 42.0636 38.3862 41.5762L28.4144 29.3883C28.0177 28.8915 27.4371 28.5756 26.8041 28.5119C26.1711 28.4482 25.5391 28.6422 25.0511 29.05L1.30333 48.4451C0.806013 48.8415 0.489707 49.4215 0.425962 50.0538C0.362216 50.6861 0.556418 51.3174 0.964637 51.8049L10.9679 64.0006C11.3583 64.4852 11.9244 64.7962 12.5432 64.8661ZM25.5474 29.6558C25.8368 29.4274 26.1946 29.3028 26.5634 29.3018C27.0496 29.3011 27.5089 29.5247 27.8079 29.9076L37.7797 42.0719C38.0549 42.3978 38.186 42.8212 38.1429 43.2454C38.0999 43.6696 37.8863 44.0582 37.5512 44.3222L13.8192 63.7174C13.4894 63.9842 13.0681 64.1113 12.6456 64.0714C12.2219 64.0309 11.8327 63.8209 11.5665 63.4892L1.59476 51.3092C1.32795 50.9765 1.20087 50.5534 1.24032 50.1289C1.27488 49.7094 1.4763 49.3211 1.79955 49.051L25.5474 29.6558Z" fill="#D1D3D4"/>
<path d="M0.845179 50.3598C0.627674 50.3598 0.451351 50.1837 0.451351 49.9664C0.440406 49.8628 0.471905 49.7592 0.538675 49.6792C0.605445 49.5991 0.701801 49.5495 0.805796 49.5415L20.5996 47.8263L26.2234 28.7931C26.2508 28.6917 26.3184 28.6058 26.4105 28.5553C26.5027 28.5048 26.6115 28.4941 26.7118 28.5255C26.9174 28.5898 27.0332 28.8071 26.9717 29.0134L21.2848 48.3062C21.2425 48.4622 21.1073 48.5753 20.9461 48.5895L0.884562 50.3598H0.845179Z" fill="#D1D3D4"/>
<path d="M21.718 45.7629C21.5005 45.7629 21.3242 45.5867 21.3242 45.3694C21.3242 45.1522 21.5005 44.976 21.718 44.976L38.4636 43.0641C38.6774 43.0453 38.8682 43.1978 38.8968 43.4103C38.9101 43.5147 38.881 43.6202 38.8158 43.703C38.7507 43.7858 38.655 43.8391 38.5502 43.8509L21.7889 45.7629H21.718Z" fill="#D1D3D4"/>
<path d="M12.7628 64.86C12.7238 64.8674 12.6837 64.8674 12.6446 64.86C12.5442 64.8294 12.4605 64.7593 12.4129 64.6657C12.3654 64.5722 12.358 64.4633 12.3926 64.3643L17.599 48.3524C17.6426 48.2119 17.758 48.1053 17.9016 48.0727C18.0453 48.0402 18.1954 48.0867 18.2955 48.1947C18.3955 48.3027 18.4303 48.4558 18.3866 48.5963L13.1802 64.6082C13.1138 64.7765 12.9429 64.8796 12.7628 64.86Z" fill="#D1D3D4"/>
<path d="M214.564 105.871C215.019 104.823 216.238 104.341 217.287 104.796L239.061 114.226C240.111 114.681 240.593 115.901 240.138 116.951L235.47 127.705C235.015 128.754 233.797 129.235 232.748 128.781L210.973 119.35C209.923 118.895 209.441 117.675 209.897 116.626L214.564 105.871Z" fill="white"/>
<path fill-rule="evenodd" clip-rule="evenodd" d="M233.039 129.317C233.288 129.424 233.555 129.48 233.826 129.482C234.081 129.474 234.333 129.418 234.567 129.317C235.059 129.123 235.453 128.74 235.662 128.255L240.703 116.665C240.907 116.177 240.907 115.627 240.703 115.138C240.508 114.645 240.126 114.249 239.639 114.037L217.01 104.241C215.996 103.807 214.822 104.271 214.379 105.279L209.346 116.885C209.145 117.377 209.145 117.928 209.346 118.419C209.541 118.913 209.928 119.307 210.417 119.513L233.039 129.317ZM215.159 105.594C215.35 105.151 215.786 104.864 216.27 104.862C216.425 104.865 216.578 104.9 216.718 104.965L239.332 114.769C239.63 114.893 239.864 115.135 239.978 115.437C240.1 115.732 240.1 116.063 239.978 116.358L234.937 127.971C234.813 128.267 234.574 128.5 234.275 128.617C233.977 128.738 233.644 128.738 233.346 128.617L210.717 118.813C210.11 118.55 209.829 117.848 210.086 117.239L215.159 105.594Z" fill="#D1D3D4"/>
<path d="M224.406 118.607C224.272 118.61 224.146 118.541 224.076 118.426L215.411 104.751C215.296 104.566 215.353 104.323 215.537 104.208C215.722 104.093 215.966 104.149 216.081 104.334L224.572 117.781L240.207 114.783C240.309 114.76 240.417 114.78 240.505 114.837C240.592 114.895 240.653 114.987 240.671 115.09C240.71 115.304 240.57 115.511 240.356 115.554L224.462 118.607H224.406Z" fill="#D1D3D4"/>
<path d="M234.285 129.41C234.153 129.41 234.029 129.345 233.954 129.237L226.408 118.025C226.29 117.844 226.339 117.602 226.519 117.482C226.605 117.423 226.711 117.401 226.814 117.422C226.916 117.443 227.006 117.504 227.062 117.592L234.608 128.836C234.727 129.019 234.678 129.263 234.498 129.386C234.43 129.413 234.357 129.421 234.285 129.41Z" fill="#D1D3D4"/>
<path d="M209.769 118.815C209.574 118.818 209.407 118.677 209.376 118.485C209.36 118.381 209.386 118.276 209.448 118.192C209.51 118.108 209.603 118.052 209.706 118.036L223.097 115.849C223.237 115.826 223.379 115.88 223.469 115.991C223.559 116.101 223.583 116.251 223.532 116.384C223.481 116.517 223.363 116.613 223.223 116.636L209.832 118.823L209.769 118.815Z" fill="#D1D3D4"/>
<path d="M63.0293 13.6761C63.2923 12.8837 64.1476 12.4543 64.9401 12.7168L81.4104 18.1708C82.2037 18.4334 82.6336 19.2897 82.3704 20.0828L79.6699 28.2207C79.4069 29.013 78.5516 29.4425 77.7591 29.18L61.2888 23.726C60.4955 23.4633 60.0656 22.6071 60.3288 21.814L63.0293 13.6761Z" fill="white"/>
<path fill-rule="evenodd" clip-rule="evenodd" d="M77.9414 29.6527C78.099 29.7045 78.2638 29.731 78.4297 29.7314C79.1091 29.732 79.7123 29.2975 79.9263 28.6534L82.8327 19.8725C83.1032 19.0515 82.6601 18.1662 81.8403 17.8897L64.7245 12.2246C63.9028 11.9602 63.0211 12.4059 62.7475 13.2239L59.8332 22.0048C59.7029 22.3992 59.7341 22.8292 59.9198 23.2008C60.106 23.5722 60.4316 23.855 60.8256 23.9876L77.9414 29.6527ZM78.7842 28.9052C78.5924 28.9839 78.3773 28.9839 78.1856 28.9052L61.0934 23.2794C60.8964 23.2159 60.7322 23.0774 60.6366 22.8939C60.5619 22.7016 60.5619 22.4883 60.6366 22.2959L63.5509 13.515C63.6163 13.321 63.7547 13.1602 63.9369 13.0665C64.1224 12.9724 64.3376 12.9554 64.5355 13.0193L81.6513 18.6844C81.8468 18.7516 82.0081 18.8929 82.1002 19.0778C82.179 19.2694 82.179 19.4842 82.1002 19.6758L79.178 28.4489C79.1126 28.6472 78.9709 28.8113 78.7842 28.9052Z" fill="#D1D3D4"/>
<path d="M70.9845 22.4318C70.8609 22.4306 70.7446 22.3726 70.6695 22.2745L63.4624 12.8798C63.3456 12.7078 63.383 12.4747 63.5477 12.3477C63.7124 12.2206 63.9476 12.2435 64.0847 12.3999L71.1027 21.5821L82.2244 18.4348C82.3257 18.4059 82.4344 18.4187 82.5262 18.4705C82.618 18.5222 82.6852 18.6086 82.7127 18.7102C82.768 18.9186 82.6451 19.1327 82.437 19.1901L71.0633 22.4476L70.9845 22.4318Z" fill="#D1D3D4"/>
<path d="M78.8791 29.651C78.7587 29.6529 78.6446 29.5973 78.5719 29.5015L72.3494 21.8064C72.2124 21.6369 72.2388 21.3886 72.4085 21.2517C72.5781 21.1148 72.8268 21.1412 72.9638 21.3107L79.1863 29.0137C79.3203 29.1834 79.2922 29.4293 79.1233 29.5644C79.0537 29.6194 78.9678 29.6499 78.8791 29.651V29.651Z" fill="#D1D3D4"/>
<path d="M60.315 23.5121C60.1743 23.529 60.0353 23.4696 59.9503 23.3563C59.8653 23.243 59.8473 23.0931 59.9031 22.9629C59.9588 22.8327 60.0798 22.7422 60.2205 22.7253L69.8141 20.2704C69.9155 20.2442 70.0231 20.2593 70.1132 20.3124C70.2034 20.3656 70.2687 20.4524 70.2946 20.5537C70.3207 20.6539 70.3054 20.7604 70.2521 20.8492C70.1987 20.938 70.1119 21.0016 70.0111 21.0258L60.4174 23.4885L60.315 23.5121Z" fill="#D1D3D4"/>
</svg>
